<svg width="160" height="160" viewBox="0 0 160 160" fill="none" xmlns="http://www.w3.org/2000/svg">
<rect width="160" height="160" fill="#F5F5F5"/>
<rect width="160" height="160" fill="#0B0808"/>
<path d="M66.6667 133.333H93.3333C93.3333 140.667 87.3333 146.667 80 146.667C72.6667 146.667 66.6667 140.667 66.6667 133.333ZM133.333 115.667V126.667H26.6667V115.667L40 103.133V68.8C40 49.3333 50.4 34 66.6667 28.9333V26.4C66.6667 16.9333 76.6 9.73333 86.6 14.6667C90.9333 16.8 93.3333 21.5333 93.3333 26.4V29C109.6 34 120 49.4 120 68.8667V103.2L133.333 115.667ZM126.667 118.467L113.333 105.933V69.4667C113.333 53 105.4 40.4 92.4667 35.4667C84.0667 31.9333 74.8667 32.1333 66.8667 35.6667C54.3333 40.7333 46.6667 53.2667 46.6667 69.4667V105.933L33.3333 118.467V120H126.667V118.467Z" fill="#FFF9F9"/>
</svg>
