<svg width="220" height="199" viewBox="0 0 220 199" fill="none" xmlns="http://www.w3.org/2000/svg">
<rect width="220" height="199" fill="#F5F5F5"/>
<rect width="220" height="199" fill="#0E0D0D"/>
<path d="M110 24.875C94.7833 24.875 82.5 36.2346 82.5 50.3304V98.9196C82.5 113.015 94.7833 124.375 110 124.375C125.217 124.375 137.5 113.015 137.5 98.9196V50.3304C137.5 36.2346 125.217 24.875 110 24.875ZM169.583 99.5H160.417C160.417 124.624 137.775 145.104 110 145.104C82.225 145.104 59.5833 124.624 59.5833 99.5H50.4167C50.4167 126.365 72.325 148.67 100.833 152.65V174.125H119.167V152.65C147.675 148.67 169.583 126.365 169.583 99.5Z" fill="#FFFDFD"/>
</svg>
