<svg width="211" height="210" viewBox="0 0 211 210" fill="none" xmlns="http://www.w3.org/2000/svg">
<path d="M183.482 176.488L134.337 127.575C143.744 116.812 149.458 102.812 149.458 87.5C149.458 53.6375 121.94 26.25 87.9167 26.25C53.8929 26.25 26.375 53.6375 26.375 87.5C26.375 121.362 53.8929 148.75 87.9167 148.75C103.302 148.75 117.369 143.062 128.182 133.787L177.328 182.7L183.482 176.488ZM87.9167 140C58.8162 140 35.1667 116.462 35.1667 87.5C35.1667 58.5375 58.8162 35 87.9167 35C117.017 35 140.667 58.5375 140.667 87.5C140.667 116.462 117.017 140 87.9167 140Z" fill="white"/>
</svg>
